<?xml version="1.0" encoding="UTF-8" standalone="no"?>
<!DOCTYPE svg PUBLIC "-//W3C//DTD SVG 1.1//EN"
 "http://www.w3.org/Graphics/SVG/1.1/DTD/svg11.dtd">
<!-- Generated by graphviz version 2.47.0 (20210316.0004)
 -->
<!-- Title: dependencies Pages: 1 -->
<svg width="672pt" height="211pt"
 viewBox="0.00 0.00 672.00 211.00" xmlns="http://www.w3.org/2000/svg" xmlns:xlink="http://www.w3.org/1999/xlink">
<g id="graph0" class="graph" transform="scale(1 1) rotate(0) translate(4 207)">
<title>dependencies</title>
<polygon fill="white" stroke="transparent" points="-4,4 -4,-207 668,-207 668,4 -4,4"/>
<text text-anchor="start" x="311.01" y="-42.4" font-family="Times-12" font-weight="bold" font-size="14.00">Legend</text>
<polygon fill="#ffffb3" stroke="transparent" points="98,-10 98,-30 118,-30 118,-10 98,-10"/>
<text text-anchor="start" x="121.63" y="-15.4" font-family="Times-12" font-size="14.00"> &#160;Declarations</text>
<polygon fill="#8dd3c7" stroke="transparent" points="211,-10 211,-30 231,-30 231,-10 211,-10"/>
<text text-anchor="start" x="234.73" y="-15.4" font-family="Times-12" font-size="14.00"> &#160;Module</text>
<polygon fill="#80b1d3" stroke="transparent" points="297,-10 297,-30 317,-30 317,-10 297,-10"/>
<text text-anchor="start" x="320.78" y="-15.4" font-family="Times-12" font-size="14.00"> &#160;Bootstrap</text>
<polygon fill="#fdb462" stroke="transparent" points="394,-10 394,-30 414,-30 414,-10 394,-10"/>
<text text-anchor="start" x="417.67" y="-15.4" font-family="Times-12" font-size="14.00"> &#160;Providers</text>
<polygon fill="#fb8072" stroke="transparent" points="490,-10 490,-30 510,-30 510,-10 490,-10"/>
<text text-anchor="start" x="513.73" y="-15.4" font-family="Times-12" font-size="14.00"> &#160;Exports</text>
<g id="clust1" class="cluster">
<title>cluster_AuthModule</title>
<polygon fill="none" stroke="black" stroke-dasharray="1,5" points="8,-70 8,-195 656,-195 656,-70 8,-70"/>
</g>
<g id="clust3" class="cluster">
<title>cluster_AuthModule_imports</title>
<polygon fill="none" stroke="black" points="528,-78 528,-130 648,-130 648,-78 528,-78"/>
</g>
<g id="clust6" class="cluster">
<title>cluster_AuthModule_providers</title>
<polygon fill="none" stroke="black" points="16,-78 16,-130 520,-130 520,-78 16,-78"/>
</g>
<!-- ProfilesModule -->
<g id="node1" class="node">
<title>ProfilesModule</title>
<polygon fill="#8dd3c7" stroke="black" points="639.59,-122 636.59,-126 615.59,-126 612.59,-122 536.41,-122 536.41,-86 639.59,-86 639.59,-122"/>
<text text-anchor="middle" x="588" y="-99.8" font-family="Times,serif" font-size="14.00">ProfilesModule</text>
</g>
<!-- AuthModule -->
<g id="node2" class="node">
<title>AuthModule</title>
<polygon fill="#8dd3c7" stroke="black" points="412.55,-187 409.55,-191 388.55,-191 385.55,-187 325.45,-187 325.45,-151 412.55,-151 412.55,-187"/>
<text text-anchor="middle" x="369" y="-164.8" font-family="Times,serif" font-size="14.00">AuthModule</text>
</g>
<!-- ProfilesModule&#45;&gt;AuthModule -->
<g id="edge1" class="edge">
<title>ProfilesModule&#45;&gt;AuthModule</title>
<path fill="none" stroke="black" d="M588,-122.11C588,-141.34 588,-169 588,-169 588,-169 422.79,-169 422.79,-169"/>
<polygon fill="black" stroke="black" points="422.79,-165.5 412.79,-169 422.79,-172.5 422.79,-165.5"/>
</g>
<!-- PrismaService -->
<g id="node3" class="node">
<title>PrismaService</title>
<ellipse fill="#fdb462" stroke="black" cx="445" cy="-104" rx="66.63" ry="18"/>
<text text-anchor="middle" x="445" y="-99.8" font-family="Times,serif" font-size="14.00">PrismaService</text>
</g>
<!-- PrismaService&#45;&gt;AuthModule -->
<g id="edge2" class="edge">
<title>PrismaService&#45;&gt;AuthModule</title>
<path fill="none" stroke="black" d="M395.48,-116.23C395.48,-116.23 395.48,-140.68 395.48,-140.68"/>
<polygon fill="black" stroke="black" points="391.98,-140.68 395.48,-150.68 398.98,-140.68 391.98,-140.68"/>
</g>
<!-- ProfileService -->
<g id="node4" class="node">
<title>ProfileService</title>
<ellipse fill="#fdb462" stroke="black" cx="294" cy="-104" rx="66.05" ry="18"/>
<text text-anchor="middle" x="294" y="-99.8" font-family="Times,serif" font-size="14.00">ProfileService</text>
</g>
<!-- ProfileService&#45;&gt;AuthModule -->
<g id="edge3" class="edge">
<title>ProfileService&#45;&gt;AuthModule</title>
<path fill="none" stroke="black" d="M342.75,-116.23C342.75,-116.23 342.75,-140.68 342.75,-140.68"/>
<polygon fill="black" stroke="black" points="339.25,-140.68 342.75,-150.68 346.25,-140.68 339.25,-140.68"/>
</g>
<!-- SupabaseJwtStrategy -->
<g id="node5" class="node">
<title>SupabaseJwtStrategy</title>
<ellipse fill="#fdb462" stroke="black" cx="117" cy="-104" rx="93.19" ry="18"/>
<text text-anchor="middle" x="117" y="-99.8" font-family="Times,serif" font-size="14.00">SupabaseJwtStrategy</text>
</g>
<!-- SupabaseJwtStrategy&#45;&gt;AuthModule -->
<g id="edge4" class="edge">
<title>SupabaseJwtStrategy&#45;&gt;AuthModule</title>
<path fill="none" stroke="black" d="M117,-122.11C117,-141.34 117,-169 117,-169 117,-169 315.39,-169 315.39,-169"/>
<polygon fill="black" stroke="black" points="315.39,-172.5 325.39,-169 315.39,-165.5 315.39,-172.5"/>
</g>
</g>
</svg>
