<?xml version="1.0" encoding="UTF-8" standalone="no"?>
<!DOCTYPE svg PUBLIC "-//W3C//DTD SVG 1.1//EN"
 "http://www.w3.org/Graphics/SVG/1.1/DTD/svg11.dtd">
<!-- Generated by graphviz version 2.47.0 (20210316.0004)
 -->
<!-- Title: dependencies Pages: 1 -->
<svg width="548pt" height="284pt"
 viewBox="0.00 0.00 548.00 284.00" xmlns="http://www.w3.org/2000/svg" xmlns:xlink="http://www.w3.org/1999/xlink">
<g id="graph0" class="graph" transform="scale(1 1) rotate(0) translate(4 280)">
<title>dependencies</title>
<polygon fill="white" stroke="transparent" points="-4,4 -4,-280 544,-280 544,4 -4,4"/>
<text text-anchor="start" x="249.01" y="-42.4" font-family="Times-12" font-weight="bold" font-size="14.00">Legend</text>
<polygon fill="#ffffb3" stroke="transparent" points="36,-10 36,-30 56,-30 56,-10 36,-10"/>
<text text-anchor="start" x="59.63" y="-15.4" font-family="Times-12" font-size="14.00"> &#160;Declarations</text>
<polygon fill="#8dd3c7" stroke="transparent" points="149,-10 149,-30 169,-30 169,-10 149,-10"/>
<text text-anchor="start" x="172.73" y="-15.4" font-family="Times-12" font-size="14.00"> &#160;Module</text>
<polygon fill="#80b1d3" stroke="transparent" points="235,-10 235,-30 255,-30 255,-10 235,-10"/>
<text text-anchor="start" x="258.78" y="-15.4" font-family="Times-12" font-size="14.00"> &#160;Bootstrap</text>
<polygon fill="#fdb462" stroke="transparent" points="332,-10 332,-30 352,-30 352,-10 332,-10"/>
<text text-anchor="start" x="355.67" y="-15.4" font-family="Times-12" font-size="14.00"> &#160;Providers</text>
<polygon fill="#fb8072" stroke="transparent" points="428,-10 428,-30 448,-30 448,-10 428,-10"/>
<text text-anchor="start" x="451.73" y="-15.4" font-family="Times-12" font-size="14.00"> &#160;Exports</text>
<g id="clust1" class="cluster">
<title>cluster_GraphModule</title>
<polygon fill="none" stroke="black" stroke-dasharray="1,5" points="8,-70 8,-268 532,-268 532,-70 8,-70"/>
</g>
<g id="clust4" class="cluster">
<title>cluster_GraphModule_exports</title>
<polygon fill="none" stroke="black" points="156,-208 156,-260 452,-260 452,-208 156,-208"/>
</g>
<g id="clust3" class="cluster">
<title>cluster_GraphModule_imports</title>
<polygon fill="none" stroke="black" points="410,-78 410,-130 524,-130 524,-78 410,-78"/>
</g>
<g id="clust6" class="cluster">
<title>cluster_GraphModule_providers</title>
<polygon fill="none" stroke="black" points="16,-78 16,-130 402,-130 402,-78 16,-78"/>
</g>
<!-- PrismaModule -->
<g id="node1" class="node">
<title>PrismaModule</title>
<polygon fill="#8dd3c7" stroke="black" points="516.43,-122 513.43,-126 492.43,-126 489.43,-122 417.57,-122 417.57,-86 516.43,-86 516.43,-122"/>
<text text-anchor="middle" x="467" y="-99.8" font-family="Times,serif" font-size="14.00">PrismaModule</text>
</g>
<!-- GraphModule -->
<g id="node2" class="node">
<title>GraphModule</title>
<polygon fill="#8dd3c7" stroke="black" points="353.03,-187 350.03,-191 329.03,-191 326.03,-187 258.97,-187 258.97,-151 353.03,-151 353.03,-187"/>
<text text-anchor="middle" x="306" y="-164.8" font-family="Times,serif" font-size="14.00">GraphModule</text>
</g>
<!-- PrismaModule&#45;&gt;GraphModule -->
<g id="edge1" class="edge">
<title>PrismaModule&#45;&gt;GraphModule</title>
<path fill="none" stroke="black" d="M430.75,-122.11C430.75,-141.34 430.75,-169 430.75,-169 430.75,-169 363.16,-169 363.16,-169"/>
<polygon fill="black" stroke="black" points="363.16,-165.5 353.16,-169 363.16,-172.5 363.16,-165.5"/>
</g>
<!-- GraphQueryService  -->
<g id="node3" class="node">
<title>GraphQueryService </title>
<polygon fill="#fb8072" stroke="black" points="443.94,-252 312.06,-252 312.06,-216 443.94,-216 443.94,-252"/>
<text text-anchor="middle" x="378" y="-229.8" font-family="Times,serif" font-size="14.00">GraphQueryService </text>
</g>
<!-- GraphModule&#45;&gt;GraphQueryService  -->
<g id="edge2" class="edge">
<title>GraphModule&#45;&gt;GraphQueryService </title>
<path fill="none" stroke="black" stroke-dasharray="5,2" d="M332.77,-187.11C332.77,-187.11 332.77,-205.99 332.77,-205.99"/>
<polygon fill="black" stroke="black" points="329.27,-205.99 332.77,-215.99 336.27,-205.99 329.27,-205.99"/>
</g>
<!-- Neo4jGraphService  -->
<g id="node4" class="node">
<title>Neo4jGraphService </title>
<polygon fill="#fb8072" stroke="black" points="294.17,-252 163.83,-252 163.83,-216 294.17,-216 294.17,-252"/>
<text text-anchor="middle" x="229" y="-229.8" font-family="Times,serif" font-size="14.00">Neo4jGraphService </text>
</g>
<!-- GraphModule&#45;&gt;Neo4jGraphService  -->
<g id="edge3" class="edge">
<title>GraphModule&#45;&gt;Neo4jGraphService </title>
<path fill="none" stroke="black" stroke-dasharray="5,2" d="M276.53,-187.11C276.53,-187.11 276.53,-205.99 276.53,-205.99"/>
<polygon fill="black" stroke="black" points="273.03,-205.99 276.53,-215.99 280.03,-205.99 273.03,-205.99"/>
</g>
<!-- GraphQueryService -->
<g id="node5" class="node">
<title>GraphQueryService</title>
<ellipse fill="#fdb462" stroke="black" cx="306" cy="-104" rx="88" ry="18"/>
<text text-anchor="middle" x="306" y="-99.8" font-family="Times,serif" font-size="14.00">GraphQueryService</text>
</g>
<!-- GraphQueryService&#45;&gt;GraphModule -->
<g id="edge4" class="edge">
<title>GraphQueryService&#45;&gt;GraphModule</title>
<path fill="none" stroke="black" d="M306,-122.11C306,-122.11 306,-140.99 306,-140.99"/>
<polygon fill="black" stroke="black" points="302.5,-140.99 306,-150.99 309.5,-140.99 302.5,-140.99"/>
</g>
<!-- Neo4jGraphService -->
<g id="node6" class="node">
<title>Neo4jGraphService</title>
<ellipse fill="#fdb462" stroke="black" cx="112" cy="-104" rx="87.94" ry="18"/>
<text text-anchor="middle" x="112" y="-99.8" font-family="Times,serif" font-size="14.00">Neo4jGraphService</text>
</g>
<!-- Neo4jGraphService&#45;&gt;GraphModule -->
<g id="edge5" class="edge">
<title>Neo4jGraphService&#45;&gt;GraphModule</title>
<path fill="none" stroke="black" d="M181.69,-115.03C181.69,-133.57 181.69,-169 181.69,-169 181.69,-169 248.65,-169 248.65,-169"/>
<polygon fill="black" stroke="black" points="248.65,-172.5 258.65,-169 248.65,-165.5 248.65,-172.5"/>
</g>
</g>
</svg>
