<?xml version="1.0" encoding="UTF-8" standalone="no"?>
<!DOCTYPE svg PUBLIC "-//W3C//DTD SVG 1.1//EN"
 "http://www.w3.org/Graphics/SVG/1.1/DTD/svg11.dtd">
<!-- Generated by graphviz version 2.47.0 (20210316.0004)
 -->
<!-- Title: dependencies Pages: 1 -->
<svg width="534pt" height="211pt"
 viewBox="0.00 0.00 534.00 211.00" xmlns="http://www.w3.org/2000/svg" xmlns:xlink="http://www.w3.org/1999/xlink">
<g id="graph0" class="graph" transform="scale(1 1) rotate(0) translate(4 207)">
<title>dependencies</title>
<polygon fill="white" stroke="transparent" points="-4,4 -4,-207 530,-207 530,4 -4,4"/>
<text text-anchor="start" x="242.01" y="-42.4" font-family="Times-12" font-weight="bold" font-size="14.00">Legend</text>
<polygon fill="#ffffb3" stroke="transparent" points="29,-10 29,-30 49,-30 49,-10 29,-10"/>
<text text-anchor="start" x="52.63" y="-15.4" font-family="Times-12" font-size="14.00"> &#160;Declarations</text>
<polygon fill="#8dd3c7" stroke="transparent" points="142,-10 142,-30 162,-30 162,-10 142,-10"/>
<text text-anchor="start" x="165.73" y="-15.4" font-family="Times-12" font-size="14.00"> &#160;Module</text>
<polygon fill="#80b1d3" stroke="transparent" points="228,-10 228,-30 248,-30 248,-10 228,-10"/>
<text text-anchor="start" x="251.78" y="-15.4" font-family="Times-12" font-size="14.00"> &#160;Bootstrap</text>
<polygon fill="#fdb462" stroke="transparent" points="325,-10 325,-30 345,-30 345,-10 325,-10"/>
<text text-anchor="start" x="348.67" y="-15.4" font-family="Times-12" font-size="14.00"> &#160;Providers</text>
<polygon fill="#fb8072" stroke="transparent" points="421,-10 421,-30 441,-30 441,-10 421,-10"/>
<text text-anchor="start" x="444.73" y="-15.4" font-family="Times-12" font-size="14.00"> &#160;Exports</text>
<g id="clust1" class="cluster">
<title>cluster_ProjectsModule</title>
<polygon fill="none" stroke="black" stroke-dasharray="1,5" points="8,-70 8,-195 518,-195 518,-70 8,-70"/>
</g>
<g id="clust6" class="cluster">
<title>cluster_ProjectsModule_providers</title>
<polygon fill="none" stroke="black" points="16,-78 16,-130 510,-130 510,-78 16,-78"/>
</g>
<!-- ProjectsLoaders -->
<g id="node1" class="node">
<title>ProjectsLoaders</title>
<ellipse fill="#fdb462" stroke="black" cx="429" cy="-104" rx="73.49" ry="18"/>
<text text-anchor="middle" x="429" y="-99.8" font-family="Times,serif" font-size="14.00">ProjectsLoaders</text>
</g>
<!-- ProjectsModule -->
<g id="node4" class="node">
<title>ProjectsModule</title>
<polygon fill="#8dd3c7" stroke="black" points="313.15,-187 310.15,-191 289.15,-191 286.15,-187 208.85,-187 208.85,-151 313.15,-151 313.15,-187"/>
<text text-anchor="middle" x="261" y="-164.8" font-family="Times,serif" font-size="14.00">ProjectsModule</text>
</g>
<!-- ProjectsLoaders&#45;&gt;ProjectsModule -->
<g id="edge1" class="edge">
<title>ProjectsLoaders&#45;&gt;ProjectsModule</title>
<path fill="none" stroke="black" d="M429,-122.11C429,-141.34 429,-169 429,-169 429,-169 323.24,-169 323.24,-169"/>
<polygon fill="black" stroke="black" points="323.24,-165.5 313.24,-169 323.24,-172.5 323.24,-165.5"/>
</g>
<!-- ProjectsResolver -->
<g id="node2" class="node">
<title>ProjectsResolver</title>
<ellipse fill="#fdb462" stroke="black" cx="261" cy="-104" rx="76.44" ry="18"/>
<text text-anchor="middle" x="261" y="-99.8" font-family="Times,serif" font-size="14.00">ProjectsResolver</text>
</g>
<!-- ProjectsResolver&#45;&gt;ProjectsModule -->
<g id="edge2" class="edge">
<title>ProjectsResolver&#45;&gt;ProjectsModule</title>
<path fill="none" stroke="black" d="M261,-122.11C261,-122.11 261,-140.99 261,-140.99"/>
<polygon fill="black" stroke="black" points="257.5,-140.99 261,-150.99 264.5,-140.99 257.5,-140.99"/>
</g>
<!-- ProjectsService -->
<g id="node3" class="node">
<title>ProjectsService</title>
<ellipse fill="#fdb462" stroke="black" cx="95" cy="-104" rx="71.2" ry="18"/>
<text text-anchor="middle" x="95" y="-99.8" font-family="Times,serif" font-size="14.00">ProjectsService</text>
</g>
<!-- ProjectsService&#45;&gt;ProjectsModule -->
<g id="edge3" class="edge">
<title>ProjectsService&#45;&gt;ProjectsModule</title>
<path fill="none" stroke="black" d="M95,-122.11C95,-141.34 95,-169 95,-169 95,-169 198.48,-169 198.48,-169"/>
<polygon fill="black" stroke="black" points="198.48,-172.5 208.48,-169 198.48,-165.5 198.48,-172.5"/>
</g>
</g>
</svg>
