<?xml version="1.0" encoding="UTF-8" standalone="no"?>
<!DOCTYPE svg PUBLIC "-//W3C//DTD SVG 1.1//EN"
 "http://www.w3.org/Graphics/SVG/1.1/DTD/svg11.dtd">
<!-- Generated by graphviz version 2.47.0 (20210316.0004)
 -->
<!-- Title: dependencies Pages: 1 -->
<svg width="4191pt" height="450pt"
 viewBox="0.00 0.00 4191.00 450.00" xmlns="http://www.w3.org/2000/svg" xmlns:xlink="http://www.w3.org/1999/xlink">
<g id="graph0" class="graph" transform="scale(1 1) rotate(0) translate(4 446)">
<title>dependencies</title>
<polygon fill="white" stroke="transparent" points="-4,4 -4,-446 4187,-446 4187,4 -4,4"/>
<text text-anchor="start" x="2070.51" y="-42.4" font-family="Times-12" font-weight="bold" font-size="14.00">Legend</text>
<polygon fill="#ffffb3" stroke="transparent" points="1857.5,-10 1857.5,-30 1877.5,-30 1877.5,-10 1857.5,-10"/>
<text text-anchor="start" x="1881.13" y="-15.4" font-family="Times-12" font-size="14.00"> &#160;Declarations</text>
<polygon fill="#8dd3c7" stroke="transparent" points="1970.5,-10 1970.5,-30 1990.5,-30 1990.5,-10 1970.5,-10"/>
<text text-anchor="start" x="1994.23" y="-15.4" font-family="Times-12" font-size="14.00"> &#160;Module</text>
<polygon fill="#80b1d3" stroke="transparent" points="2056.5,-10 2056.5,-30 2076.5,-30 2076.5,-10 2056.5,-10"/>
<text text-anchor="start" x="2080.28" y="-15.4" font-family="Times-12" font-size="14.00"> &#160;Bootstrap</text>
<polygon fill="#fdb462" stroke="transparent" points="2153.5,-10 2153.5,-30 2173.5,-30 2173.5,-10 2153.5,-10"/>
<text text-anchor="start" x="2177.17" y="-15.4" font-family="Times-12" font-size="14.00"> &#160;Providers</text>
<polygon fill="#fb8072" stroke="transparent" points="2249.5,-10 2249.5,-30 2269.5,-30 2269.5,-10 2249.5,-10"/>
<text text-anchor="start" x="2273.23" y="-15.4" font-family="Times-12" font-size="14.00"> &#160;Exports</text>
<g id="clust1" class="cluster">
<title>cluster_AnalysisModule</title>
<polygon fill="none" stroke="black" stroke-dasharray="1,5" points="2799,-146 2799,-434 4175,-434 4175,-146 2799,-146"/>
</g>
<g id="clust3" class="cluster">
<title>cluster_AnalysisModule_imports</title>
<polygon fill="none" stroke="black" points="2807,-154 2807,-282 3177,-282 3177,-154 2807,-154"/>
</g>
<g id="clust4" class="cluster">
<title>cluster_AnalysisModule_exports</title>
<polygon fill="none" stroke="black" points="3488,-374 3488,-426 3936,-426 3936,-374 3488,-374"/>
</g>
<g id="clust6" class="cluster">
<title>cluster_AnalysisModule_providers</title>
<polygon fill="none" stroke="black" points="3185,-230 3185,-282 4115,-282 4115,-230 3185,-230"/>
</g>
<g id="clust7" class="cluster">
<title>cluster_AppModule</title>
<polygon fill="none" stroke="black" stroke-dasharray="1,5" points="324,-222 324,-426 582,-426 582,-222 324,-222"/>
</g>
<g id="clust9" class="cluster">
<title>cluster_AppModule_imports</title>
<polygon fill="none" stroke="black" points="332,-230 332,-358 574,-358 574,-230 332,-230"/>
</g>
<g id="clust13" class="cluster">
<title>cluster_AuthModule</title>
<polygon fill="none" stroke="black" stroke-dasharray="1,5" points="453,-70 453,-138 973,-138 973,-70 453,-70"/>
</g>
<g id="clust18" class="cluster">
<title>cluster_AuthModule_providers</title>
<polygon fill="none" stroke="black" points="461,-78 461,-130 965,-130 965,-78 461,-78"/>
</g>
<g id="clust19" class="cluster">
<title>cluster_GraphModule</title>
<polygon fill="none" stroke="black" stroke-dasharray="1,5" points="2085,-298 2085,-366 2791,-366 2791,-298 2085,-298"/>
</g>
<g id="clust22" class="cluster">
<title>cluster_GraphModule_exports</title>
<polygon fill="none" stroke="black" points="2487,-306 2487,-358 2783,-358 2783,-306 2487,-306"/>
</g>
<g id="clust24" class="cluster">
<title>cluster_GraphModule_providers</title>
<polygon fill="none" stroke="black" points="2093,-306 2093,-358 2479,-358 2479,-306 2093,-306"/>
</g>
<g id="clust25" class="cluster">
<title>cluster_MCPModule</title>
<polygon fill="none" stroke="black" stroke-dasharray="1,5" points="802,-222 802,-290 1152,-290 1152,-222 802,-222"/>
</g>
<g id="clust28" class="cluster">
<title>cluster_MCPModule_exports</title>
<polygon fill="none" stroke="black" points="1002,-230 1002,-282 1144,-282 1144,-230 1002,-230"/>
</g>
<g id="clust30" class="cluster">
<title>cluster_MCPModule_providers</title>
<polygon fill="none" stroke="black" points="810,-230 810,-282 994,-282 994,-230 810,-230"/>
</g>
<g id="clust31" class="cluster">
<title>cluster_PrismaModule</title>
<polygon fill="none" stroke="black" stroke-dasharray="1,5" points="1160,-222 1160,-290 1292,-290 1292,-222 1160,-222"/>
</g>
<g id="clust34" class="cluster">
<title>cluster_PrismaModule_exports</title>
<polygon fill="none" stroke="black" points="1168,-230 1168,-282 1284,-282 1284,-230 1168,-230"/>
</g>
<g id="clust37" class="cluster">
<title>cluster_ProfilesModule</title>
<polygon fill="none" stroke="black" stroke-dasharray="1,5" points="184,-298 184,-366 316,-366 316,-298 184,-298"/>
</g>
<g id="clust40" class="cluster">
<title>cluster_ProfilesModule_exports</title>
<polygon fill="none" stroke="black" points="192,-306 192,-358 308,-358 308,-306 192,-306"/>
</g>
<g id="clust43" class="cluster">
<title>cluster_ProjectsModule</title>
<polygon fill="none" stroke="black" stroke-dasharray="1,5" points="8,-146 8,-214 517,-214 517,-146 8,-146"/>
</g>
<g id="clust48" class="cluster">
<title>cluster_ProjectsModule_providers</title>
<polygon fill="none" stroke="black" points="16,-154 16,-206 509,-206 509,-154 16,-154"/>
</g>
<g id="clust49" class="cluster">
<title>cluster_RepositoriesModule</title>
<polygon fill="none" stroke="black" stroke-dasharray="1,5" points="1300,-222 1300,-290 2791,-290 2791,-222 1300,-222"/>
</g>
<g id="clust52" class="cluster">
<title>cluster_RepositoriesModule_exports</title>
<polygon fill="none" stroke="black" points="2147,-230 2147,-282 2783,-282 2783,-230 2147,-230"/>
</g>
<g id="clust54" class="cluster">
<title>cluster_RepositoriesModule_providers</title>
<polygon fill="none" stroke="black" points="1308,-230 1308,-282 2139,-282 2139,-230 1308,-230"/>
</g>
<!-- GraphModule -->
<g id="node1" class="node">
<title>GraphModule</title>
<polygon fill="#8dd3c7" stroke="black" points="2909.03,-274 2906.03,-278 2885.03,-278 2882.03,-274 2814.97,-274 2814.97,-238 2909.03,-238 2909.03,-274"/>
<text text-anchor="middle" x="2862" y="-251.8" font-family="Times,serif" font-size="14.00">GraphModule</text>
</g>
<!-- AnalysisModule -->
<g id="node5" class="node">
<title>AnalysisModule</title>
<polygon fill="#8dd3c7" stroke="black" points="3784.04,-350 3781.04,-354 3760.04,-354 3757.04,-350 3675.96,-350 3675.96,-314 3784.04,-314 3784.04,-350"/>
<text text-anchor="middle" x="3730" y="-327.8" font-family="Times,serif" font-size="14.00">AnalysisModule</text>
</g>
<!-- GraphModule&#45;&gt;AnalysisModule -->
<g id="edge1" class="edge">
<title>GraphModule&#45;&gt;AnalysisModule</title>
<path fill="none" stroke="black" d="M2895.76,-274.09C2895.76,-297.13 2895.76,-334 2895.76,-334 2895.76,-334 3665.91,-334 3665.91,-334"/>
<polygon fill="black" stroke="black" points="3665.91,-337.5 3675.91,-334 3665.91,-330.5 3665.91,-337.5"/>
</g>
<!-- AppModule -->
<g id="node17" class="node">
<title>AppModule</title>
<polygon fill="#8dd3c7" stroke="black" points="573.66,-418 570.66,-422 549.66,-422 546.66,-418 490.34,-418 490.34,-382 573.66,-382 573.66,-418"/>
<text text-anchor="middle" x="532" y="-395.8" font-family="Times,serif" font-size="14.00">AppModule</text>
</g>
<!-- GraphModule&#45;&gt;AppModule -->
<g id="edge15" class="edge">
<title>GraphModule&#45;&gt;AppModule</title>
<path fill="none" stroke="black" d="M2882.26,-274.07C2882.26,-310.65 2882.26,-390 2882.26,-390 2882.26,-390 583.79,-390 583.79,-390"/>
<polygon fill="black" stroke="black" points="583.79,-386.5 573.79,-390 583.79,-393.5 583.79,-386.5"/>
</g>
<!-- GraphQueryService  -->
<g id="node21" class="node">
<title>GraphQueryService </title>
<polygon fill="#fb8072" stroke="black" points="2626.94,-350 2495.06,-350 2495.06,-314 2626.94,-314 2626.94,-350"/>
<text text-anchor="middle" x="2561" y="-327.8" font-family="Times,serif" font-size="14.00">GraphQueryService </text>
</g>
<!-- GraphModule&#45;&gt;GraphQueryService  -->
<g id="edge26" class="edge">
<title>GraphModule&#45;&gt;GraphQueryService </title>
<path fill="none" stroke="black" stroke-dasharray="5,2" d="M2855.25,-274.15C2855.25,-287.74 2855.25,-304 2855.25,-304 2855.25,-304 2561,-304 2561,-304 2561,-304 2561,-304.98 2561,-304.98"/>
<polygon fill="black" stroke="black" points="2557.5,-303.79 2561,-313.79 2564.5,-303.79 2557.5,-303.79"/>
</g>
<!-- Neo4jGraphService  -->
<g id="node22" class="node">
<title>Neo4jGraphService </title>
<polygon fill="#fb8072" stroke="black" points="2775.17,-350 2644.83,-350 2644.83,-314 2775.17,-314 2775.17,-350"/>
<text text-anchor="middle" x="2710" y="-327.8" font-family="Times,serif" font-size="14.00">Neo4jGraphService </text>
</g>
<!-- GraphModule&#45;&gt;Neo4jGraphService  -->
<g id="edge27" class="edge">
<title>GraphModule&#45;&gt;Neo4jGraphService </title>
<path fill="none" stroke="black" stroke-dasharray="5,2" d="M2868.75,-274.21C2868.75,-300.51 2868.75,-346 2868.75,-346 2868.75,-346 2785.49,-346 2785.49,-346"/>
<polygon fill="black" stroke="black" points="2785.49,-342.5 2775.49,-346 2785.49,-349.5 2785.49,-342.5"/>
</g>
<!-- MCPModule -->
<g id="node2" class="node">
<title>MCPModule</title>
<polygon fill="#8dd3c7" stroke="black" points="2904.61,-198 2901.61,-202 2880.61,-202 2877.61,-198 2815.39,-198 2815.39,-162 2904.61,-162 2904.61,-198"/>
<text text-anchor="middle" x="2860" y="-175.8" font-family="Times,serif" font-size="14.00">MCPModule</text>
</g>
<!-- MCPModule&#45;&gt;AnalysisModule -->
<g id="edge2" class="edge">
<title>MCPModule&#45;&gt;AnalysisModule</title>
<path fill="none" stroke="black" d="M2904.69,-180C2911.34,-180 2916.02,-180 2916.02,-180 2916.02,-180 2916.02,-330 2916.02,-330 2916.02,-330 3665.65,-330 3665.65,-330"/>
<polygon fill="black" stroke="black" points="3665.65,-333.5 3675.65,-330 3665.65,-326.5 3665.65,-333.5"/>
</g>
<!-- MCPModule&#45;&gt;AppModule -->
<g id="edge16" class="edge">
<title>MCPModule&#45;&gt;AppModule</title>
<path fill="none" stroke="black" d="M2815.32,-171C2495.89,-171 571.81,-171 571.81,-171 571.81,-171 571.81,-371.65 571.81,-371.65"/>
<polygon fill="black" stroke="black" points="568.31,-371.65 571.81,-381.65 575.31,-371.65 568.31,-371.65"/>
</g>
<!-- MCPClientService  -->
<g id="node25" class="node">
<title>MCPClientService </title>
<polygon fill="#fb8072" stroke="black" points="1135.76,-274 1010.24,-274 1010.24,-238 1135.76,-238 1135.76,-274"/>
<text text-anchor="middle" x="1073" y="-251.8" font-family="Times,serif" font-size="14.00">MCPClientService </text>
</g>
<!-- MCPModule&#45;&gt;MCPClientService  -->
<g id="edge30" class="edge">
<title>MCPModule&#45;&gt;MCPClientService </title>
<path fill="none" stroke="black" stroke-dasharray="5,2" d="M2815.38,-189C2539.06,-189 1073,-189 1073,-189 1073,-189 1073,-227.69 1073,-227.69"/>
<polygon fill="black" stroke="black" points="1069.5,-227.69 1073,-237.69 1076.5,-227.69 1069.5,-227.69"/>
</g>
<!-- PrismaModule -->
<g id="node3" class="node">
<title>PrismaModule</title>
<polygon fill="#8dd3c7" stroke="black" points="3021.43,-198 3018.43,-202 2997.43,-202 2994.43,-198 2922.57,-198 2922.57,-162 3021.43,-162 3021.43,-198"/>
<text text-anchor="middle" x="2972" y="-175.8" font-family="Times,serif" font-size="14.00">PrismaModule</text>
</g>
<!-- PrismaModule&#45;&gt;GraphModule -->
<g id="edge25" class="edge">
<title>PrismaModule&#45;&gt;GraphModule</title>
<path fill="none" stroke="black" d="M2962.16,-198.01C2962.16,-220.49 2962.16,-256 2962.16,-256 2962.16,-256 2919.15,-256 2919.15,-256"/>
<polygon fill="black" stroke="black" points="2919.15,-252.5 2909.15,-256 2919.15,-259.5 2919.15,-252.5"/>
</g>
<!-- PrismaModule&#45;&gt;AnalysisModule -->
<g id="edge3" class="edge">
<title>PrismaModule&#45;&gt;AnalysisModule</title>
<path fill="none" stroke="black" d="M3001.53,-198.2C3001.53,-237.33 3001.53,-326 3001.53,-326 3001.53,-326 3665.84,-326 3665.84,-326"/>
<polygon fill="black" stroke="black" points="3665.84,-329.5 3675.84,-326 3665.84,-322.5 3665.84,-329.5"/>
</g>
<!-- PrismaModule&#45;&gt;AppModule -->
<g id="edge17" class="edge">
<title>PrismaModule&#45;&gt;AppModule</title>
<path fill="none" stroke="black" d="M2981.84,-198.13C2981.84,-250.28 2981.84,-397 2981.84,-397 2981.84,-397 583.75,-397 583.75,-397"/>
<polygon fill="black" stroke="black" points="583.75,-393.5 573.75,-397 583.75,-400.5 583.75,-393.5"/>
</g>
<!-- PrismaService  -->
<g id="node27" class="node">
<title>PrismaService </title>
<polygon fill="#fb8072" stroke="black" points="1276.36,-274 1175.64,-274 1175.64,-238 1276.36,-238 1276.36,-274"/>
<text text-anchor="middle" x="1226" y="-251.8" font-family="Times,serif" font-size="14.00">PrismaService </text>
</g>
<!-- PrismaModule&#45;&gt;PrismaService  -->
<g id="edge32" class="edge">
<title>PrismaModule&#45;&gt;PrismaService </title>
<path fill="none" stroke="black" stroke-dasharray="5,2" d="M2942.47,-198.17C2942.47,-200.45 2942.47,-202 2942.47,-202 2942.47,-202 1226,-202 1226,-202 1226,-202 1226,-227.72 1226,-227.72"/>
<polygon fill="black" stroke="black" points="1222.5,-227.72 1226,-237.72 1229.5,-227.72 1222.5,-227.72"/>
</g>
<!-- RepositoriesModule -->
<g id="node4" class="node">
<title>RepositoriesModule</title>
<polygon fill="#8dd3c7" stroke="black" points="3168.54,-198 3165.54,-202 3144.54,-202 3141.54,-198 3039.46,-198 3039.46,-162 3168.54,-162 3168.54,-198"/>
<text text-anchor="middle" x="3104" y="-175.8" font-family="Times,serif" font-size="14.00">RepositoriesModule</text>
</g>
<!-- RepositoriesModule&#45;&gt;AnalysisModule -->
<g id="edge4" class="edge">
<title>RepositoriesModule&#45;&gt;AnalysisModule</title>
<path fill="none" stroke="black" d="M3168.56,-180C3328.84,-180 3732.11,-180 3732.11,-180 3732.11,-180 3732.11,-303.97 3732.11,-303.97"/>
<polygon fill="black" stroke="black" points="3728.61,-303.97 3732.11,-313.97 3735.61,-303.97 3728.61,-303.97"/>
</g>
<!-- RepositoriesModule&#45;&gt;AppModule -->
<g id="edge20" class="edge">
<title>RepositoriesModule&#45;&gt;AppModule</title>
<path fill="none" stroke="black" d="M3155.81,-198.33C3155.81,-251.83 3155.81,-404 3155.81,-404 3155.81,-404 583.74,-404 583.74,-404"/>
<polygon fill="black" stroke="black" points="583.74,-400.5 573.74,-404 583.74,-407.5 583.74,-400.5"/>
</g>
<!-- AnnotationsService  -->
<g id="node32" class="node">
<title>AnnotationsService </title>
<polygon fill="#fb8072" stroke="black" points="2774.92,-274 2645.08,-274 2645.08,-238 2774.92,-238 2774.92,-274"/>
<text text-anchor="middle" x="2710" y="-251.8" font-family="Times,serif" font-size="14.00">AnnotationsService </text>
</g>
<!-- RepositoriesModule&#45;&gt;AnnotationsService  -->
<g id="edge39" class="edge">
<title>RepositoriesModule&#45;&gt;AnnotationsService </title>
<path fill="none" stroke="black" stroke-dasharray="5,2" d="M3142.86,-198.28C3142.86,-213.95 3142.86,-234 3142.86,-234 3142.86,-234 2710,-234 2710,-234 2710,-234 2710,-234.38 2710,-234.38"/>
<polygon fill="black" stroke="black" points="2706.5,-227.83 2710,-237.83 2713.5,-227.83 2706.5,-227.83"/>
</g>
<!-- RepositoriesService  -->
<g id="node33" class="node">
<title>RepositoriesService </title>
<polygon fill="#fb8072" stroke="black" points="2626.97,-274 2495.03,-274 2495.03,-238 2626.97,-238 2626.97,-274"/>
<text text-anchor="middle" x="2561" y="-251.8" font-family="Times,serif" font-size="14.00">RepositoriesService </text>
</g>
<!-- RepositoriesModule&#45;&gt;RepositoriesService  -->
<g id="edge40" class="edge">
<title>RepositoriesModule&#45;&gt;RepositoriesService </title>
<path fill="none" stroke="black" stroke-dasharray="5,2" d="M3129.91,-198.05C3129.91,-212.37 3129.91,-230 3129.91,-230 3129.91,-230 2561,-230 2561,-230 2561,-230 2561,-230.79 2561,-230.79"/>
<polygon fill="black" stroke="black" points="2557.5,-227.94 2561,-237.94 2564.5,-227.94 2557.5,-227.94"/>
</g>
<!-- RepositoryFileService  -->
<g id="node34" class="node">
<title>RepositoryFileService </title>
<polygon fill="#fb8072" stroke="black" points="2477.19,-274 2332.81,-274 2332.81,-238 2477.19,-238 2477.19,-274"/>
<text text-anchor="middle" x="2405" y="-251.8" font-family="Times,serif" font-size="14.00">RepositoryFileService </text>
</g>
<!-- RepositoriesModule&#45;&gt;RepositoryFileService  -->
<g id="edge41" class="edge">
<title>RepositoriesModule&#45;&gt;RepositoryFileService </title>
<path fill="none" stroke="black" stroke-dasharray="5,2" d="M3116.95,-198.18C3116.95,-211.04 3116.95,-226 3116.95,-226 3116.95,-226 2405,-226 2405,-226 2405,-226 2405,-227.86 2405,-227.86"/>
<polygon fill="black" stroke="black" points="2401.5,-227.86 2405,-237.86 2408.5,-227.86 2401.5,-227.86"/>
</g>
<!-- SyncRepositoriesService  -->
<g id="node35" class="node">
<title>SyncRepositoriesService </title>
<polygon fill="#fb8072" stroke="black" points="2314.96,-274 2155.04,-274 2155.04,-238 2314.96,-238 2314.96,-274"/>
<text text-anchor="middle" x="2235" y="-251.8" font-family="Times,serif" font-size="14.00">SyncRepositoriesService </text>
</g>
<!-- RepositoriesModule&#45;&gt;SyncRepositoriesService  -->
<g id="edge42" class="edge">
<title>RepositoriesModule&#45;&gt;SyncRepositoriesService </title>
<path fill="none" stroke="black" stroke-dasharray="5,2" d="M3104,-198.06C3104,-209.44 3104,-222 3104,-222 3104,-222 2235,-222 2235,-222 2235,-222 2235,-227.81 2235,-227.81"/>
<polygon fill="black" stroke="black" points="2231.5,-227.81 2235,-237.81 2238.5,-227.81 2231.5,-227.81"/>
</g>
<!-- AnalysisService  -->
<g id="node6" class="node">
<title>AnalysisService </title>
<polygon fill="#fb8072" stroke="black" points="3928.47,-418 3817.53,-418 3817.53,-382 3928.47,-382 3928.47,-418"/>
<text text-anchor="middle" x="3873" y="-395.8" font-family="Times,serif" font-size="14.00">AnalysisService </text>
</g>
<!-- AnalysisModule&#45;&gt;AnalysisService  -->
<g id="edge5" class="edge">
<title>AnalysisModule&#45;&gt;AnalysisService </title>
<path fill="none" stroke="black" stroke-dasharray="5,2" d="M3784.25,-338C3818.13,-338 3855.35,-338 3855.35,-338 3855.35,-338 3855.35,-371.73 3855.35,-371.73"/>
<polygon fill="black" stroke="black" points="3851.85,-371.73 3855.35,-381.73 3858.85,-371.73 3851.85,-371.73"/>
</g>
<!-- MCPAnalysisService  -->
<g id="node7" class="node">
<title>MCPAnalysisService </title>
<polygon fill="#fb8072" stroke="black" points="3800.03,-418 3659.97,-418 3659.97,-382 3800.03,-382 3800.03,-418"/>
<text text-anchor="middle" x="3730" y="-395.8" font-family="Times,serif" font-size="14.00">MCPAnalysisService </text>
</g>
<!-- AnalysisModule&#45;&gt;MCPAnalysisService  -->
<g id="edge6" class="edge">
<title>AnalysisModule&#45;&gt;MCPAnalysisService </title>
<path fill="none" stroke="black" stroke-dasharray="5,2" d="M3730,-350.22C3730,-350.22 3730,-371.73 3730,-371.73"/>
<polygon fill="black" stroke="black" points="3726.5,-371.73 3730,-381.73 3733.5,-371.73 3726.5,-371.73"/>
</g>
<!-- MCPSummaryService  -->
<g id="node8" class="node">
<title>MCPSummaryService </title>
<polygon fill="#fb8072" stroke="black" points="3641.98,-418 3496.02,-418 3496.02,-382 3641.98,-382 3641.98,-418"/>
<text text-anchor="middle" x="3569" y="-395.8" font-family="Times,serif" font-size="14.00">MCPSummaryService </text>
</g>
<!-- AnalysisModule&#45;&gt;MCPSummaryService  -->
<g id="edge7" class="edge">
<title>AnalysisModule&#45;&gt;MCPSummaryService </title>
<path fill="none" stroke="black" stroke-dasharray="5,2" d="M3675.9,-342C3641.46,-342 3603.29,-342 3603.29,-342 3603.29,-342 3603.29,-371.97 3603.29,-371.97"/>
<polygon fill="black" stroke="black" points="3599.79,-371.97 3603.29,-381.97 3606.79,-371.97 3599.79,-371.97"/>
</g>
<!-- AnalysisModule&#45;&gt;AppModule -->
<g id="edge13" class="edge">
<title>AnalysisModule&#45;&gt;AppModule</title>
<path fill="none" stroke="black" d="M3675.91,-338C3593.95,-338 3447.74,-338 3447.74,-338 3447.74,-338 3447.74,-411 3447.74,-411 3447.74,-411 583.78,-411 583.78,-411"/>
<polygon fill="black" stroke="black" points="583.78,-407.5 573.78,-411 583.78,-414.5 583.78,-407.5"/>
</g>
<!-- AnalysisLoaders -->
<g id="node9" class="node">
<title>AnalysisLoaders</title>
<ellipse fill="#fdb462" stroke="black" cx="3817" cy="-256" rx="75.86" ry="18"/>
<text text-anchor="middle" x="3817" y="-251.8" font-family="Times,serif" font-size="14.00">AnalysisLoaders</text>
</g>
<!-- AnalysisLoaders&#45;&gt;AnalysisModule -->
<g id="edge8" class="edge">
<title>AnalysisLoaders&#45;&gt;AnalysisModule</title>
<path fill="none" stroke="black" d="M3762.67,-268.89C3762.67,-268.89 3762.67,-303.91 3762.67,-303.91"/>
<polygon fill="black" stroke="black" points="3759.17,-303.91 3762.67,-313.91 3766.17,-303.91 3759.17,-303.91"/>
</g>
<!-- AnalysisResolver -->
<g id="node10" class="node">
<title>AnalysisResolver</title>
<ellipse fill="#fdb462" stroke="black" cx="3644" cy="-256" rx="79.31" ry="18"/>
<text text-anchor="middle" x="3644" y="-251.8" font-family="Times,serif" font-size="14.00">AnalysisResolver</text>
</g>
<!-- AnalysisResolver&#45;&gt;AnalysisModule -->
<g id="edge9" class="edge">
<title>AnalysisResolver&#45;&gt;AnalysisModule</title>
<path fill="none" stroke="black" d="M3699.44,-268.89C3699.44,-268.89 3699.44,-303.91 3699.44,-303.91"/>
<polygon fill="black" stroke="black" points="3695.94,-303.91 3699.44,-313.91 3702.94,-303.91 3695.94,-303.91"/>
</g>
<!-- AnalysisService -->
<g id="node11" class="node">
<title>AnalysisService</title>
<ellipse fill="#fdb462" stroke="black" cx="3473" cy="-256" rx="73.57" ry="18"/>
<text text-anchor="middle" x="3473" y="-251.8" font-family="Times,serif" font-size="14.00">AnalysisService</text>
</g>
<!-- AnalysisService&#45;&gt;AnalysisModule -->
<g id="edge10" class="edge">
<title>AnalysisService&#45;&gt;AnalysisModule</title>
<path fill="none" stroke="black" d="M3521.52,-269.76C3521.52,-288.03 3521.52,-318 3521.52,-318 3521.52,-318 3665.77,-318 3665.77,-318"/>
<polygon fill="black" stroke="black" points="3665.77,-321.5 3675.77,-318 3665.77,-314.5 3665.77,-321.5"/>
</g>
<!-- MCPAnalysisService -->
<g id="node12" class="node">
<title>MCPAnalysisService</title>
<ellipse fill="#fdb462" stroke="black" cx="3287" cy="-256" rx="94.36" ry="18"/>
<text text-anchor="middle" x="3287" y="-251.8" font-family="Times,serif" font-size="14.00">MCPAnalysisService</text>
</g>
<!-- MCPAnalysisService&#45;&gt;AnalysisModule -->
<g id="edge11" class="edge">
<title>MCPAnalysisService&#45;&gt;AnalysisModule</title>
<path fill="none" stroke="black" d="M3287,-274.03C3287,-293.58 3287,-322 3287,-322 3287,-322 3665.68,-322 3665.68,-322"/>
<polygon fill="black" stroke="black" points="3665.68,-325.5 3675.68,-322 3665.68,-318.5 3665.68,-325.5"/>
</g>
<!-- MCPSummaryService -->
<g id="node13" class="node">
<title>MCPSummaryService</title>
<ellipse fill="#fdb462" stroke="black" cx="4009" cy="-256" rx="97.87" ry="18"/>
<text text-anchor="middle" x="4009" y="-251.8" font-family="Times,serif" font-size="14.00">MCPSummaryService</text>
</g>
<!-- MCPSummaryService&#45;&gt;AnalysisModule -->
<g id="edge12" class="edge">
<title>MCPSummaryService&#45;&gt;AnalysisModule</title>
<path fill="none" stroke="black" d="M3919.65,-263.49C3919.65,-281.55 3919.65,-326 3919.65,-326 3919.65,-326 3794.09,-326 3794.09,-326"/>
<polygon fill="black" stroke="black" points="3794.09,-322.5 3784.09,-326 3794.09,-329.5 3794.09,-322.5"/>
</g>
<!-- AuthModule -->
<g id="node14" class="node">
<title>AuthModule</title>
<polygon fill="#8dd3c7" stroke="black" points="565.55,-350 562.55,-354 541.55,-354 538.55,-350 478.45,-350 478.45,-314 565.55,-314 565.55,-350"/>
<text text-anchor="middle" x="522" y="-327.8" font-family="Times,serif" font-size="14.00">AuthModule</text>
</g>
<!-- AuthModule&#45;&gt;AppModule -->
<g id="edge14" class="edge">
<title>AuthModule&#45;&gt;AppModule</title>
<path fill="none" stroke="black" d="M527.97,-350.22C527.97,-350.22 527.97,-371.73 527.97,-371.73"/>
<polygon fill="black" stroke="black" points="524.47,-371.73 527.97,-381.73 531.47,-371.73 524.47,-371.73"/>
</g>
<!-- ProfilesModule -->
<g id="node15" class="node">
<title>ProfilesModule</title>
<polygon fill="#8dd3c7" stroke="black" points="565.59,-274 562.59,-278 541.59,-278 538.59,-274 462.41,-274 462.41,-238 565.59,-238 565.59,-274"/>
<text text-anchor="middle" x="514" y="-251.8" font-family="Times,serif" font-size="14.00">ProfilesModule</text>
</g>
<!-- ProfilesModule&#45;&gt;AuthModule -->
<g id="edge21" class="edge">
<title>ProfilesModule&#45;&gt;AuthModule</title>
<path fill="none" stroke="black" d="M521.89,-274.01C521.89,-274.01 521.89,-303.85 521.89,-303.85"/>
<polygon fill="black" stroke="black" points="518.39,-303.85 521.89,-313.85 525.39,-303.85 518.39,-303.85"/>
</g>
<!-- ProfilesModule&#45;&gt;AppModule -->
<g id="edge18" class="edge">
<title>ProfilesModule&#45;&gt;AppModule</title>
<path fill="none" stroke="black" d="M565.79,-256C568.3,-256 569.8,-256 569.8,-256 569.8,-256 569.8,-371.76 569.8,-371.76"/>
<polygon fill="black" stroke="black" points="566.3,-371.76 569.8,-381.76 573.3,-371.76 566.3,-371.76"/>
</g>
<!-- ProfileService  -->
<g id="node28" class="node">
<title>ProfileService </title>
<polygon fill="#fb8072" stroke="black" points="299.58,-350 200.42,-350 200.42,-314 299.58,-314 299.58,-350"/>
<text text-anchor="middle" x="250" y="-327.8" font-family="Times,serif" font-size="14.00">ProfileService </text>
</g>
<!-- ProfilesModule&#45;&gt;ProfileService  -->
<g id="edge34" class="edge">
<title>ProfilesModule&#45;&gt;ProfileService </title>
<path fill="none" stroke="black" stroke-dasharray="5,2" d="M470.34,-274.01C470.34,-296.49 470.34,-332 470.34,-332 470.34,-332 309.72,-332 309.72,-332"/>
<polygon fill="black" stroke="black" points="309.72,-328.5 299.72,-332 309.72,-335.5 309.72,-328.5"/>
</g>
<!-- ProjectsModule -->
<g id="node16" class="node">
<title>ProjectsModule</title>
<polygon fill="#8dd3c7" stroke="black" points="444.15,-274 441.15,-278 420.15,-278 417.15,-274 339.85,-274 339.85,-238 444.15,-238 444.15,-274"/>
<text text-anchor="middle" x="392" y="-251.8" font-family="Times,serif" font-size="14.00">ProjectsModule</text>
</g>
<!-- ProjectsModule&#45;&gt;AppModule -->
<g id="edge19" class="edge">
<title>ProjectsModule&#45;&gt;AppModule</title>
<path fill="none" stroke="black" d="M392,-274.24C392,-312.99 392,-400 392,-400 392,-400 480,-400 480,-400"/>
<polygon fill="black" stroke="black" points="480,-403.5 490,-400 480,-396.5 480,-403.5"/>
</g>
<!-- PrismaService -->
<g id="node18" class="node">
<title>PrismaService</title>
<ellipse fill="#fdb462" stroke="black" cx="890" cy="-104" rx="66.63" ry="18"/>
<text text-anchor="middle" x="890" y="-99.8" font-family="Times,serif" font-size="14.00">PrismaService</text>
</g>
<!-- PrismaService&#45;&gt;PrismaModule -->
<g id="edge33" class="edge">
<title>PrismaService&#45;&gt;PrismaModule</title>
<path fill="none" stroke="black" d="M956.91,-104C1313.28,-104 2972,-104 2972,-104 2972,-104 2972,-151.99 2972,-151.99"/>
<polygon fill="black" stroke="black" points="2968.5,-151.99 2972,-161.99 2975.5,-151.99 2968.5,-151.99"/>
</g>
<!-- PrismaService&#45;&gt;AuthModule -->
<g id="edge22" class="edge">
<title>PrismaService&#45;&gt;AuthModule</title>
<path fill="none" stroke="black" d="M823.13,-104C816.15,-104 811.55,-104 811.55,-104 811.55,-104 811.55,-341 811.55,-341 811.55,-341 575.66,-341 575.66,-341"/>
<polygon fill="black" stroke="black" points="575.66,-337.5 565.66,-341 575.66,-344.5 575.66,-337.5"/>
</g>
<!-- ProfileService -->
<g id="node19" class="node">
<title>ProfileService</title>
<ellipse fill="#fdb462" stroke="black" cx="535" cy="-104" rx="66.05" ry="18"/>
<text text-anchor="middle" x="535" y="-99.8" font-family="Times,serif" font-size="14.00">ProfileService</text>
</g>
<!-- ProfileService&#45;&gt;AuthModule -->
<g id="edge23" class="edge">
<title>ProfileService&#45;&gt;AuthModule</title>
<path fill="none" stroke="black" d="M567.79,-119.75C567.79,-169.96 567.79,-323 567.79,-323 567.79,-323 567.57,-323 567.57,-323"/>
<polygon fill="black" stroke="black" points="575.58,-319.5 565.58,-323 575.58,-326.5 575.58,-319.5"/>
</g>
<!-- ProfileService&#45;&gt;ProfilesModule -->
<g id="edge35" class="edge">
<title>ProfileService&#45;&gt;ProfilesModule</title>
<path fill="none" stroke="black" d="M533.51,-122.03C533.51,-122.03 533.51,-227.99 533.51,-227.99"/>
<polygon fill="black" stroke="black" points="530.01,-227.99 533.51,-237.99 537.01,-227.99 530.01,-227.99"/>
</g>
<!-- SupabaseJwtStrategy -->
<g id="node20" class="node">
<title>SupabaseJwtStrategy</title>
<ellipse fill="#fdb462" stroke="black" cx="712" cy="-104" rx="93.19" ry="18"/>
<text text-anchor="middle" x="712" y="-99.8" font-family="Times,serif" font-size="14.00">SupabaseJwtStrategy</text>
</g>
<!-- SupabaseJwtStrategy&#45;&gt;AuthModule -->
<g id="edge24" class="edge">
<title>SupabaseJwtStrategy&#45;&gt;AuthModule</title>
<path fill="none" stroke="black" d="M712,-122.27C712,-176.38 712,-332 712,-332 712,-332 575.59,-332 575.59,-332"/>
<polygon fill="black" stroke="black" points="575.59,-328.5 565.59,-332 575.59,-335.5 575.59,-328.5"/>
</g>
<!-- GraphQueryService -->
<g id="node23" class="node">
<title>GraphQueryService</title>
<ellipse fill="#fdb462" stroke="black" cx="2189" cy="-332" rx="88" ry="18"/>
<text text-anchor="middle" x="2189" y="-327.8" font-family="Times,serif" font-size="14.00">GraphQueryService</text>
</g>
<!-- GraphQueryService&#45;&gt;GraphModule -->
<g id="edge28" class="edge">
<title>GraphQueryService&#45;&gt;GraphModule</title>
<path fill="none" stroke="black" d="M2216.26,-314.67C2216.26,-300.92 2216.26,-284 2216.26,-284 2216.26,-284 2828.24,-284 2828.24,-284 2828.24,-284 2828.24,-283.02 2828.24,-283.02"/>
<polygon fill="black" stroke="black" points="2831.74,-284.21 2828.24,-274.21 2824.74,-284.21 2831.74,-284.21"/>
</g>
<!-- Neo4jGraphService -->
<g id="node24" class="node">
<title>Neo4jGraphService</title>
<ellipse fill="#fdb462" stroke="black" cx="2383" cy="-332" rx="87.94" ry="18"/>
<text text-anchor="middle" x="2383" y="-327.8" font-family="Times,serif" font-size="14.00">Neo4jGraphService</text>
</g>
<!-- Neo4jGraphService&#45;&gt;GraphModule -->
<g id="edge29" class="edge">
<title>Neo4jGraphService&#45;&gt;GraphModule</title>
<path fill="none" stroke="black" d="M2401.69,-314.33C2401.69,-304.41 2401.69,-294 2401.69,-294 2401.69,-294 2841.74,-294 2841.74,-294 2841.74,-294 2841.74,-284.11 2841.74,-284.11"/>
<polygon fill="black" stroke="black" points="2845.24,-284.11 2841.74,-274.11 2838.24,-284.11 2845.24,-284.11"/>
</g>
<!-- MCPClientService -->
<g id="node26" class="node">
<title>MCPClientService</title>
<ellipse fill="#fdb462" stroke="black" cx="902" cy="-256" rx="83.98" ry="18"/>
<text text-anchor="middle" x="902" y="-251.8" font-family="Times,serif" font-size="14.00">MCPClientService</text>
</g>
<!-- MCPClientService&#45;&gt;MCPModule -->
<g id="edge31" class="edge">
<title>MCPClientService&#45;&gt;MCPModule</title>
<path fill="none" stroke="black" d="M971.4,-245.75C971.4,-225.01 971.4,-180 971.4,-180 971.4,-180 2805.18,-180 2805.18,-180"/>
<polygon fill="black" stroke="black" points="2805.18,-183.5 2815.18,-180 2805.18,-176.5 2805.18,-183.5"/>
</g>
<!-- ProjectsLoaders -->
<g id="node29" class="node">
<title>ProjectsLoaders</title>
<ellipse fill="#fdb462" stroke="black" cx="97" cy="-180" rx="73.49" ry="18"/>
<text text-anchor="middle" x="97" y="-175.8" font-family="Times,serif" font-size="14.00">ProjectsLoaders</text>
</g>
<!-- ProjectsLoaders&#45;&gt;ProjectsModule -->
<g id="edge36" class="edge">
<title>ProjectsLoaders&#45;&gt;ProjectsModule</title>
<path fill="none" stroke="black" d="M97,-198.01C97,-220.49 97,-256 97,-256 97,-256 329.6,-256 329.6,-256"/>
<polygon fill="black" stroke="black" points="329.6,-259.5 339.6,-256 329.6,-252.5 329.6,-259.5"/>
</g>
<!-- ProjectsResolver -->
<g id="node30" class="node">
<title>ProjectsResolver</title>
<ellipse fill="#fdb462" stroke="black" cx="425" cy="-180" rx="76.44" ry="18"/>
<text text-anchor="middle" x="425" y="-175.8" font-family="Times,serif" font-size="14.00">ProjectsResolver</text>
</g>
<!-- ProjectsResolver&#45;&gt;ProjectsModule -->
<g id="edge37" class="edge">
<title>ProjectsResolver&#45;&gt;ProjectsModule</title>
<path fill="none" stroke="black" d="M396.43,-196.87C396.43,-196.87 396.43,-227.85 396.43,-227.85"/>
<polygon fill="black" stroke="black" points="392.93,-227.85 396.43,-237.85 399.93,-227.85 392.93,-227.85"/>
</g>
<!-- ProjectsService -->
<g id="node31" class="node">
<title>ProjectsService</title>
<ellipse fill="#fdb462" stroke="black" cx="259" cy="-180" rx="71.2" ry="18"/>
<text text-anchor="middle" x="259" y="-175.8" font-family="Times,serif" font-size="14.00">ProjectsService</text>
</g>
<!-- ProjectsService&#45;&gt;ProjectsModule -->
<g id="edge38" class="edge">
<title>ProjectsService&#45;&gt;ProjectsModule</title>
<path fill="none" stroke="black" d="M330.43,-180C338.62,-180 344.1,-180 344.1,-180 344.1,-180 344.1,-227.99 344.1,-227.99"/>
<polygon fill="black" stroke="black" points="340.6,-227.99 344.1,-237.99 347.6,-227.99 340.6,-227.99"/>
</g>
<!-- AnnotationsService -->
<g id="node36" class="node">
<title>AnnotationsService</title>
<ellipse fill="#fdb462" stroke="black" cx="2044" cy="-256" rx="87.4" ry="18"/>
<text text-anchor="middle" x="2044" y="-251.8" font-family="Times,serif" font-size="14.00">AnnotationsService</text>
</g>
<!-- AnnotationsService&#45;&gt;RepositoriesModule -->
<g id="edge43" class="edge">
<title>AnnotationsService&#45;&gt;RepositoriesModule</title>
<path fill="none" stroke="black" d="M2044,-237.89C2044,-228.1 2044,-218 2044,-218 2044,-218 3091.05,-218 3091.05,-218 3091.05,-218 3091.05,-208.11 3091.05,-208.11"/>
<polygon fill="black" stroke="black" points="3094.55,-208.11 3091.05,-198.11 3087.55,-208.11 3094.55,-208.11"/>
</g>
<!-- RepositoriesService -->
<g id="node37" class="node">
<title>RepositoriesService</title>
<ellipse fill="#fdb462" stroke="black" cx="1851" cy="-256" rx="88.04" ry="18"/>
<text text-anchor="middle" x="1851" y="-251.8" font-family="Times,serif" font-size="14.00">RepositoriesService</text>
</g>
<!-- RepositoriesService&#45;&gt;RepositoriesModule -->
<g id="edge44" class="edge">
<title>RepositoriesService&#45;&gt;RepositoriesModule</title>
<path fill="none" stroke="black" d="M1851,-237.94C1851,-226.56 1851,-214 1851,-214 1851,-214 3078.09,-214 3078.09,-214 3078.09,-214 3078.09,-208.19 3078.09,-208.19"/>
<polygon fill="black" stroke="black" points="3081.59,-208.19 3078.09,-198.19 3074.59,-208.19 3081.59,-208.19"/>
</g>
<!-- RepositoryFileService -->
<g id="node38" class="node">
<title>RepositoryFileService</title>
<ellipse fill="#fdb462" stroke="black" cx="1647" cy="-256" rx="97.29" ry="18"/>
<text text-anchor="middle" x="1647" y="-251.8" font-family="Times,serif" font-size="14.00">RepositoryFileService</text>
</g>
<!-- RepositoryFileService&#45;&gt;RepositoriesModule -->
<g id="edge45" class="edge">
<title>RepositoryFileService&#45;&gt;RepositoriesModule</title>
<path fill="none" stroke="black" d="M1647,-237.82C1647,-224.96 1647,-210 1647,-210 1647,-210 3065.14,-210 3065.14,-210 3065.14,-210 3065.14,-208.14 3065.14,-208.14"/>
<polygon fill="black" stroke="black" points="3068.64,-208.14 3065.14,-198.14 3061.64,-208.14 3068.64,-208.14"/>
</g>
<!-- SyncRepositoriesService -->
<g id="node39" class="node">
<title>SyncRepositoriesService</title>
<ellipse fill="#fdb462" stroke="black" cx="1424" cy="-256" rx="107.66" ry="18"/>
<text text-anchor="middle" x="1424" y="-251.8" font-family="Times,serif" font-size="14.00">SyncRepositoriesService</text>
</g>
<!-- SyncRepositoriesService&#45;&gt;RepositoriesModule -->
<g id="edge46" class="edge">
<title>SyncRepositoriesService&#45;&gt;RepositoriesModule</title>
<path fill="none" stroke="black" d="M1424,-237.95C1424,-223.63 1424,-206 1424,-206 1424,-206 3052.19,-206 3052.19,-206 3052.19,-206 3052.19,-205.21 3052.19,-205.21"/>
<polygon fill="black" stroke="black" points="3055.69,-208.06 3052.19,-198.06 3048.69,-208.06 3055.69,-208.06"/>
</g>
</g>
</svg>
