<?xml version="1.0" encoding="UTF-8" standalone="no"?>
<!DOCTYPE svg PUBLIC "-//W3C//DTD SVG 1.1//EN"
 "http://www.w3.org/Graphics/SVG/1.1/DTD/svg11.dtd">
<!-- Generated by graphviz version 2.47.0 (20210316.0004)
 -->
<!-- Title: dependencies Pages: 1 -->
<svg width="871pt" height="284pt"
 viewBox="0.00 0.00 871.00 284.00" xmlns="http://www.w3.org/2000/svg" xmlns:xlink="http://www.w3.org/1999/xlink">
<g id="graph0" class="graph" transform="scale(1 1) rotate(0) translate(4 280)">
<title>dependencies</title>
<polygon fill="white" stroke="transparent" points="-4,4 -4,-280 867,-280 867,4 -4,4"/>
<text text-anchor="start" x="410.51" y="-42.4" font-family="Times-12" font-weight="bold" font-size="14.00">Legend</text>
<polygon fill="#ffffb3" stroke="transparent" points="197.5,-10 197.5,-30 217.5,-30 217.5,-10 197.5,-10"/>
<text text-anchor="start" x="221.13" y="-15.4" font-family="Times-12" font-size="14.00"> &#160;Declarations</text>
<polygon fill="#8dd3c7" stroke="transparent" points="310.5,-10 310.5,-30 330.5,-30 330.5,-10 310.5,-10"/>
<text text-anchor="start" x="334.23" y="-15.4" font-family="Times-12" font-size="14.00"> &#160;Module</text>
<polygon fill="#80b1d3" stroke="transparent" points="396.5,-10 396.5,-30 416.5,-30 416.5,-10 396.5,-10"/>
<text text-anchor="start" x="420.28" y="-15.4" font-family="Times-12" font-size="14.00"> &#160;Bootstrap</text>
<polygon fill="#fdb462" stroke="transparent" points="493.5,-10 493.5,-30 513.5,-30 513.5,-10 493.5,-10"/>
<text text-anchor="start" x="517.17" y="-15.4" font-family="Times-12" font-size="14.00"> &#160;Providers</text>
<polygon fill="#fb8072" stroke="transparent" points="589.5,-10 589.5,-30 609.5,-30 609.5,-10 589.5,-10"/>
<text text-anchor="start" x="613.23" y="-15.4" font-family="Times-12" font-size="14.00"> &#160;Exports</text>
<g id="clust1" class="cluster">
<title>cluster_RepositoriesModule</title>
<polygon fill="none" stroke="black" stroke-dasharray="1,5" points="8,-70 8,-268 855,-268 855,-70 8,-70"/>
</g>
<g id="clust6" class="cluster">
<title>cluster_RepositoriesModule_providers</title>
<polygon fill="none" stroke="black" points="16,-78 16,-130 847,-130 847,-78 16,-78"/>
</g>
<g id="clust4" class="cluster">
<title>cluster_RepositoriesModule_exports</title>
<polygon fill="none" stroke="black" points="85,-208 85,-260 721,-260 721,-208 85,-208"/>
</g>
<!-- AnnotationsService  -->
<g id="node1" class="node">
<title>AnnotationsService </title>
<polygon fill="#fb8072" stroke="black" points="712.92,-252 583.08,-252 583.08,-216 712.92,-216 712.92,-252"/>
<text text-anchor="middle" x="648" y="-229.8" font-family="Times,serif" font-size="14.00">AnnotationsService </text>
</g>
<!-- RepositoriesService  -->
<g id="node2" class="node">
<title>RepositoriesService </title>
<polygon fill="#fb8072" stroke="black" points="564.97,-252 433.03,-252 433.03,-216 564.97,-216 564.97,-252"/>
<text text-anchor="middle" x="499" y="-229.8" font-family="Times,serif" font-size="14.00">RepositoriesService </text>
</g>
<!-- RepositoryFileService  -->
<g id="node3" class="node">
<title>RepositoryFileService </title>
<polygon fill="#fb8072" stroke="black" points="415.19,-252 270.81,-252 270.81,-216 415.19,-216 415.19,-252"/>
<text text-anchor="middle" x="343" y="-229.8" font-family="Times,serif" font-size="14.00">RepositoryFileService </text>
</g>
<!-- SyncRepositoriesService  -->
<g id="node4" class="node">
<title>SyncRepositoriesService </title>
<polygon fill="#fb8072" stroke="black" points="252.96,-252 93.04,-252 93.04,-216 252.96,-216 252.96,-252"/>
<text text-anchor="middle" x="173" y="-229.8" font-family="Times,serif" font-size="14.00">SyncRepositoriesService </text>
</g>
<!-- RepositoriesModule -->
<g id="node5" class="node">
<title>RepositoriesModule</title>
<polygon fill="#8dd3c7" stroke="black" points="476.54,-187 473.54,-191 452.54,-191 449.54,-187 347.46,-187 347.46,-151 476.54,-151 476.54,-187"/>
<text text-anchor="middle" x="412" y="-164.8" font-family="Times,serif" font-size="14.00">RepositoriesModule</text>
</g>
<!-- RepositoriesModule&#45;&gt;AnnotationsService  -->
<g id="edge1" class="edge">
<title>RepositoriesModule&#45;&gt;AnnotationsService </title>
<path fill="none" stroke="black" stroke-dasharray="5,2" d="M476.56,-175C536.05,-175 615.16,-175 615.16,-175 615.16,-175 615.16,-205.98 615.16,-205.98"/>
<polygon fill="black" stroke="black" points="611.66,-205.98 615.16,-215.98 618.66,-205.98 611.66,-205.98"/>
</g>
<!-- RepositoriesModule&#45;&gt;RepositoriesService  -->
<g id="edge2" class="edge">
<title>RepositoriesModule&#45;&gt;RepositoriesService </title>
<path fill="none" stroke="black" stroke-dasharray="5,2" d="M455.02,-187.11C455.02,-187.11 455.02,-205.99 455.02,-205.99"/>
<polygon fill="black" stroke="black" points="451.52,-205.99 455.02,-215.99 458.52,-205.99 451.52,-205.99"/>
</g>
<!-- RepositoriesModule&#45;&gt;RepositoryFileService  -->
<g id="edge3" class="edge">
<title>RepositoriesModule&#45;&gt;RepositoryFileService </title>
<path fill="none" stroke="black" stroke-dasharray="5,2" d="M381.29,-187.11C381.29,-187.11 381.29,-205.99 381.29,-205.99"/>
<polygon fill="black" stroke="black" points="377.79,-205.99 381.29,-215.99 384.79,-205.99 377.79,-205.99"/>
</g>
<!-- RepositoriesModule&#45;&gt;SyncRepositoriesService  -->
<g id="edge4" class="edge">
<title>RepositoriesModule&#45;&gt;SyncRepositoriesService </title>
<path fill="none" stroke="black" stroke-dasharray="5,2" d="M347.41,-175C300.84,-175 246.16,-175 246.16,-175 246.16,-175 246.16,-205.98 246.16,-205.98"/>
<polygon fill="black" stroke="black" points="242.66,-205.98 246.16,-215.98 249.66,-205.98 242.66,-205.98"/>
</g>
<!-- AnnotationsService -->
<g id="node6" class="node">
<title>AnnotationsService</title>
<ellipse fill="#fdb462" stroke="black" cx="752" cy="-104" rx="87.4" ry="18"/>
<text text-anchor="middle" x="752" y="-99.8" font-family="Times,serif" font-size="14.00">AnnotationsService</text>
</g>
<!-- AnnotationsService&#45;&gt;RepositoriesModule -->
<g id="edge5" class="edge">
<title>AnnotationsService&#45;&gt;RepositoriesModule</title>
<path fill="none" stroke="black" d="M688.88,-116.51C688.88,-133.83 688.88,-163 688.88,-163 688.88,-163 486.57,-163 486.57,-163"/>
<polygon fill="black" stroke="black" points="486.57,-159.5 476.57,-163 486.57,-166.5 486.57,-159.5"/>
</g>
<!-- RepositoriesService -->
<g id="node7" class="node">
<title>RepositoriesService</title>
<ellipse fill="#fdb462" stroke="black" cx="559" cy="-104" rx="88.04" ry="18"/>
<text text-anchor="middle" x="559" y="-99.8" font-family="Times,serif" font-size="14.00">RepositoriesService</text>
</g>
<!-- RepositoriesService&#45;&gt;RepositoriesModule -->
<g id="edge6" class="edge">
<title>RepositoriesService&#45;&gt;RepositoriesModule</title>
<path fill="none" stroke="black" d="M470.55,-104C464.99,-104 461.56,-104 461.56,-104 461.56,-104 461.56,-140.89 461.56,-140.89"/>
<polygon fill="black" stroke="black" points="458.06,-140.89 461.56,-150.89 465.06,-140.89 458.06,-140.89"/>
</g>
<!-- RepositoryFileService -->
<g id="node8" class="node">
<title>RepositoryFileService</title>
<ellipse fill="#fdb462" stroke="black" cx="355" cy="-104" rx="97.29" ry="18"/>
<text text-anchor="middle" x="355" y="-99.8" font-family="Times,serif" font-size="14.00">RepositoryFileService</text>
</g>
<!-- RepositoryFileService&#45;&gt;RepositoriesModule -->
<g id="edge7" class="edge">
<title>RepositoryFileService&#45;&gt;RepositoriesModule</title>
<path fill="none" stroke="black" d="M399.81,-120.07C399.81,-120.07 399.81,-140.82 399.81,-140.82"/>
<polygon fill="black" stroke="black" points="396.31,-140.82 399.81,-150.82 403.31,-140.82 396.31,-140.82"/>
</g>
<!-- SyncRepositoriesService -->
<g id="node9" class="node">
<title>SyncRepositoriesService</title>
<ellipse fill="#fdb462" stroke="black" cx="132" cy="-104" rx="107.66" ry="18"/>
<text text-anchor="middle" x="132" y="-99.8" font-family="Times,serif" font-size="14.00">SyncRepositoriesService</text>
</g>
<!-- SyncRepositoriesService&#45;&gt;RepositoriesModule -->
<g id="edge8" class="edge">
<title>SyncRepositoriesService&#45;&gt;RepositoriesModule</title>
<path fill="none" stroke="black" d="M166.42,-121.07C166.42,-138.49 166.42,-163 166.42,-163 166.42,-163 337.16,-163 337.16,-163"/>
<polygon fill="black" stroke="black" points="337.16,-166.5 347.16,-163 337.16,-159.5 337.16,-166.5"/>
</g>
</g>
</svg>
