<?xml version="1.0" encoding="UTF-8" standalone="no"?>
<!DOCTYPE svg PUBLIC "-//W3C//DTD SVG 1.1//EN"
 "http://www.w3.org/Graphics/SVG/1.1/DTD/svg11.dtd">
<!-- Generated by graphviz version 2.47.0 (20210316.0004)
 -->
<!-- Title: dependencies Pages: 1 -->
<svg width="998pt" height="211pt"
 viewBox="0.00 0.00 998.00 211.00" xmlns="http://www.w3.org/2000/svg" xmlns:xlink="http://www.w3.org/1999/xlink">
<g id="graph0" class="graph" transform="scale(1 1) rotate(0) translate(4 207)">
<title>dependencies</title>
<polygon fill="white" stroke="transparent" points="-4,4 -4,-207 994,-207 994,4 -4,4"/>
<text text-anchor="start" x="474.01" y="-42.4" font-family="Times-12" font-weight="bold" font-size="14.00">Legend</text>
<polygon fill="#ffffb3" stroke="transparent" points="261,-10 261,-30 281,-30 281,-10 261,-10"/>
<text text-anchor="start" x="284.63" y="-15.4" font-family="Times-12" font-size="14.00"> &#160;Declarations</text>
<polygon fill="#8dd3c7" stroke="transparent" points="374,-10 374,-30 394,-30 394,-10 374,-10"/>
<text text-anchor="start" x="397.73" y="-15.4" font-family="Times-12" font-size="14.00"> &#160;Module</text>
<polygon fill="#80b1d3" stroke="transparent" points="460,-10 460,-30 480,-30 480,-10 460,-10"/>
<text text-anchor="start" x="483.78" y="-15.4" font-family="Times-12" font-size="14.00"> &#160;Bootstrap</text>
<polygon fill="#fdb462" stroke="transparent" points="557,-10 557,-30 577,-30 577,-10 557,-10"/>
<text text-anchor="start" x="580.67" y="-15.4" font-family="Times-12" font-size="14.00"> &#160;Providers</text>
<polygon fill="#fb8072" stroke="transparent" points="653,-10 653,-30 673,-30 673,-10 653,-10"/>
<text text-anchor="start" x="676.73" y="-15.4" font-family="Times-12" font-size="14.00"> &#160;Exports</text>
<g id="clust1" class="cluster">
<title>cluster_AppModule</title>
<polygon fill="none" stroke="black" stroke-dasharray="1,5" points="8,-70 8,-195 982,-195 982,-70 8,-70"/>
</g>
<g id="clust3" class="cluster">
<title>cluster_AppModule_imports</title>
<polygon fill="none" stroke="black" points="16,-78 16,-130 974,-130 974,-78 16,-78"/>
</g>
<!-- AnalysisModule -->
<g id="node1" class="node">
<title>AnalysisModule</title>
<polygon fill="#8dd3c7" stroke="black" points="966.04,-122 963.04,-126 942.04,-126 939.04,-122 857.96,-122 857.96,-86 966.04,-86 966.04,-122"/>
<text text-anchor="middle" x="912" y="-99.8" font-family="Times,serif" font-size="14.00">AnalysisModule</text>
</g>
<!-- AppModule -->
<g id="node9" class="node">
<title>AppModule</title>
<polygon fill="#8dd3c7" stroke="black" points="562.66,-187 559.66,-191 538.66,-191 535.66,-187 479.34,-187 479.34,-151 562.66,-151 562.66,-187"/>
<text text-anchor="middle" x="521" y="-164.8" font-family="Times,serif" font-size="14.00">AppModule</text>
</g>
<!-- AnalysisModule&#45;&gt;AppModule -->
<g id="edge1" class="edge">
<title>AnalysisModule&#45;&gt;AppModule</title>
<path fill="none" stroke="black" d="M912,-122.29C912,-144.21 912,-178 912,-178 912,-178 572.84,-178 572.84,-178"/>
<polygon fill="black" stroke="black" points="572.84,-174.5 562.84,-178 572.84,-181.5 572.84,-174.5"/>
</g>
<!-- AuthModule -->
<g id="node2" class="node">
<title>AuthModule</title>
<polygon fill="#8dd3c7" stroke="black" points="839.55,-122 836.55,-126 815.55,-126 812.55,-122 752.45,-122 752.45,-86 839.55,-86 839.55,-122"/>
<text text-anchor="middle" x="796" y="-99.8" font-family="Times,serif" font-size="14.00">AuthModule</text>
</g>
<!-- AuthModule&#45;&gt;AppModule -->
<g id="edge2" class="edge">
<title>AuthModule&#45;&gt;AppModule</title>
<path fill="none" stroke="black" d="M796,-122.11C796,-141.34 796,-169 796,-169 796,-169 572.77,-169 572.77,-169"/>
<polygon fill="black" stroke="black" points="572.77,-165.5 562.77,-169 572.77,-172.5 572.77,-165.5"/>
</g>
<!-- GraphModule -->
<g id="node3" class="node">
<title>GraphModule</title>
<polygon fill="#8dd3c7" stroke="black" points="734.03,-122 731.03,-126 710.03,-126 707.03,-122 639.97,-122 639.97,-86 734.03,-86 734.03,-122"/>
<text text-anchor="middle" x="687" y="-99.8" font-family="Times,serif" font-size="14.00">GraphModule</text>
</g>
<!-- GraphModule&#45;&gt;AppModule -->
<g id="edge3" class="edge">
<title>GraphModule&#45;&gt;AppModule</title>
<path fill="none" stroke="black" d="M687,-122.03C687,-138.4 687,-160 687,-160 687,-160 572.89,-160 572.89,-160"/>
<polygon fill="black" stroke="black" points="572.89,-156.5 562.89,-160 572.89,-163.5 572.89,-156.5"/>
</g>
<!-- MCPModule -->
<g id="node4" class="node">
<title>MCPModule</title>
<polygon fill="#8dd3c7" stroke="black" points="621.61,-122 618.61,-126 597.61,-126 594.61,-122 532.39,-122 532.39,-86 621.61,-86 621.61,-122"/>
<text text-anchor="middle" x="577" y="-99.8" font-family="Times,serif" font-size="14.00">MCPModule</text>
</g>
<!-- MCPModule&#45;&gt;AppModule -->
<g id="edge4" class="edge">
<title>MCPModule&#45;&gt;AppModule</title>
<path fill="none" stroke="black" d="M547.64,-122.11C547.64,-122.11 547.64,-140.99 547.64,-140.99"/>
<polygon fill="black" stroke="black" points="544.14,-140.99 547.64,-150.99 551.14,-140.99 544.14,-140.99"/>
</g>
<!-- PrismaModule -->
<g id="node5" class="node">
<title>PrismaModule</title>
<polygon fill="#8dd3c7" stroke="black" points="514.43,-122 511.43,-126 490.43,-126 487.43,-122 415.57,-122 415.57,-86 514.43,-86 514.43,-122"/>
<text text-anchor="middle" x="465" y="-99.8" font-family="Times,serif" font-size="14.00">PrismaModule</text>
</g>
<!-- PrismaModule&#45;&gt;AppModule -->
<g id="edge5" class="edge">
<title>PrismaModule&#45;&gt;AppModule</title>
<path fill="none" stroke="black" d="M496.69,-122.11C496.69,-122.11 496.69,-140.99 496.69,-140.99"/>
<polygon fill="black" stroke="black" points="493.19,-140.99 496.69,-150.99 500.19,-140.99 493.19,-140.99"/>
</g>
<!-- ProfilesModule -->
<g id="node6" class="node">
<title>ProfilesModule</title>
<polygon fill="#8dd3c7" stroke="black" points="397.59,-122 394.59,-126 373.59,-126 370.59,-122 294.41,-122 294.41,-86 397.59,-86 397.59,-122"/>
<text text-anchor="middle" x="346" y="-99.8" font-family="Times,serif" font-size="14.00">ProfilesModule</text>
</g>
<!-- ProfilesModule&#45;&gt;AppModule -->
<g id="edge6" class="edge">
<title>ProfilesModule&#45;&gt;AppModule</title>
<path fill="none" stroke="black" d="M346,-122.03C346,-138.4 346,-160 346,-160 346,-160 469.08,-160 469.08,-160"/>
<polygon fill="black" stroke="black" points="469.08,-163.5 479.08,-160 469.08,-156.5 469.08,-163.5"/>
</g>
<!-- ProjectsModule -->
<g id="node7" class="node">
<title>ProjectsModule</title>
<polygon fill="#8dd3c7" stroke="black" points="276.15,-122 273.15,-126 252.15,-126 249.15,-122 171.85,-122 171.85,-86 276.15,-86 276.15,-122"/>
<text text-anchor="middle" x="224" y="-99.8" font-family="Times,serif" font-size="14.00">ProjectsModule</text>
</g>
<!-- ProjectsModule&#45;&gt;AppModule -->
<g id="edge7" class="edge">
<title>ProjectsModule&#45;&gt;AppModule</title>
<path fill="none" stroke="black" d="M224,-122.11C224,-141.34 224,-169 224,-169 224,-169 469.08,-169 469.08,-169"/>
<polygon fill="black" stroke="black" points="469.08,-172.5 479.08,-169 469.08,-165.5 469.08,-172.5"/>
</g>
<!-- RepositoriesModule -->
<g id="node8" class="node">
<title>RepositoriesModule</title>
<polygon fill="#8dd3c7" stroke="black" points="153.54,-122 150.54,-126 129.54,-126 126.54,-122 24.46,-122 24.46,-86 153.54,-86 153.54,-122"/>
<text text-anchor="middle" x="89" y="-99.8" font-family="Times,serif" font-size="14.00">RepositoriesModule</text>
</g>
<!-- RepositoriesModule&#45;&gt;AppModule -->
<g id="edge8" class="edge">
<title>RepositoriesModule&#45;&gt;AppModule</title>
<path fill="none" stroke="black" d="M89,-122.29C89,-144.21 89,-178 89,-178 89,-178 469.19,-178 469.19,-178"/>
<polygon fill="black" stroke="black" points="469.19,-181.5 479.19,-178 469.19,-174.5 469.19,-181.5"/>
</g>
</g>
</svg>
