<?xml version="1.0" encoding="UTF-8" standalone="no"?>
<!DOCTYPE svg PUBLIC "-//W3C//DTD SVG 1.1//EN"
 "http://www.w3.org/Graphics/SVG/1.1/DTD/svg11.dtd">
<!-- Generated by graphviz version 2.47.0 (20210316.0004)
 -->
<!-- Title: dependencies Pages: 1 -->
<svg width="1460pt" height="284pt"
 viewBox="0.00 0.00 1460.00 284.00" xmlns="http://www.w3.org/2000/svg" xmlns:xlink="http://www.w3.org/1999/xlink">
<g id="graph0" class="graph" transform="scale(1 1) rotate(0) translate(4 280)">
<title>dependencies</title>
<polygon fill="white" stroke="transparent" points="-4,4 -4,-280 1456,-280 1456,4 -4,4"/>
<text text-anchor="start" x="705.01" y="-42.4" font-family="Times-12" font-weight="bold" font-size="14.00">Legend</text>
<polygon fill="#ffffb3" stroke="transparent" points="492,-10 492,-30 512,-30 512,-10 492,-10"/>
<text text-anchor="start" x="515.63" y="-15.4" font-family="Times-12" font-size="14.00"> &#160;Declarations</text>
<polygon fill="#8dd3c7" stroke="transparent" points="605,-10 605,-30 625,-30 625,-10 605,-10"/>
<text text-anchor="start" x="628.73" y="-15.4" font-family="Times-12" font-size="14.00"> &#160;Module</text>
<polygon fill="#80b1d3" stroke="transparent" points="691,-10 691,-30 711,-30 711,-10 691,-10"/>
<text text-anchor="start" x="714.78" y="-15.4" font-family="Times-12" font-size="14.00"> &#160;Bootstrap</text>
<polygon fill="#fdb462" stroke="transparent" points="788,-10 788,-30 808,-30 808,-10 788,-10"/>
<text text-anchor="start" x="811.67" y="-15.4" font-family="Times-12" font-size="14.00"> &#160;Providers</text>
<polygon fill="#fb8072" stroke="transparent" points="884,-10 884,-30 904,-30 904,-10 884,-10"/>
<text text-anchor="start" x="907.73" y="-15.4" font-family="Times-12" font-size="14.00"> &#160;Exports</text>
<g id="clust1" class="cluster">
<title>cluster_AnalysisModule</title>
<polygon fill="none" stroke="black" stroke-dasharray="1,5" points="8,-70 8,-268 1444,-268 1444,-70 8,-70"/>
</g>
<g id="clust3" class="cluster">
<title>cluster_AnalysisModule_imports</title>
<polygon fill="none" stroke="black" points="954,-78 954,-130 1436,-130 1436,-78 954,-78"/>
</g>
<g id="clust4" class="cluster">
<title>cluster_AnalysisModule_exports</title>
<polygon fill="none" stroke="black" points="620,-208 620,-260 1068,-260 1068,-208 620,-208"/>
</g>
<g id="clust6" class="cluster">
<title>cluster_AnalysisModule_providers</title>
<polygon fill="none" stroke="black" points="16,-78 16,-130 946,-130 946,-78 16,-78"/>
</g>
<!-- GraphModule -->
<g id="node1" class="node">
<title>GraphModule</title>
<polygon fill="#8dd3c7" stroke="black" points="1428.03,-122 1425.03,-126 1404.03,-126 1401.03,-122 1333.97,-122 1333.97,-86 1428.03,-86 1428.03,-122"/>
<text text-anchor="middle" x="1381" y="-99.8" font-family="Times,serif" font-size="14.00">GraphModule</text>
</g>
<!-- AnalysisModule -->
<g id="node5" class="node">
<title>AnalysisModule</title>
<polygon fill="#8dd3c7" stroke="black" points="916.04,-187 913.04,-191 892.04,-191 889.04,-187 807.96,-187 807.96,-151 916.04,-151 916.04,-187"/>
<text text-anchor="middle" x="862" y="-164.8" font-family="Times,serif" font-size="14.00">AnalysisModule</text>
</g>
<!-- GraphModule&#45;&gt;AnalysisModule -->
<g id="edge1" class="edge">
<title>GraphModule&#45;&gt;AnalysisModule</title>
<path fill="none" stroke="black" d="M1381,-122.28C1381,-143.32 1381,-175 1381,-175 1381,-175 926.07,-175 926.07,-175"/>
<polygon fill="black" stroke="black" points="926.07,-171.5 916.07,-175 926.07,-178.5 926.07,-171.5"/>
</g>
<!-- MCPModule -->
<g id="node2" class="node">
<title>MCPModule</title>
<polygon fill="#8dd3c7" stroke="black" points="1315.61,-122 1312.61,-126 1291.61,-126 1288.61,-122 1226.39,-122 1226.39,-86 1315.61,-86 1315.61,-122"/>
<text text-anchor="middle" x="1271" y="-99.8" font-family="Times,serif" font-size="14.00">MCPModule</text>
</g>
<!-- MCPModule&#45;&gt;AnalysisModule -->
<g id="edge2" class="edge">
<title>MCPModule&#45;&gt;AnalysisModule</title>
<path fill="none" stroke="black" d="M1271,-122.11C1271,-141.34 1271,-169 1271,-169 1271,-169 926.31,-169 926.31,-169"/>
<polygon fill="black" stroke="black" points="926.31,-165.5 916.31,-169 926.31,-172.5 926.31,-165.5"/>
</g>
<!-- PrismaModule -->
<g id="node3" class="node">
<title>PrismaModule</title>
<polygon fill="#8dd3c7" stroke="black" points="1208.43,-122 1205.43,-126 1184.43,-126 1181.43,-122 1109.57,-122 1109.57,-86 1208.43,-86 1208.43,-122"/>
<text text-anchor="middle" x="1159" y="-99.8" font-family="Times,serif" font-size="14.00">PrismaModule</text>
</g>
<!-- PrismaModule&#45;&gt;AnalysisModule -->
<g id="edge3" class="edge">
<title>PrismaModule&#45;&gt;AnalysisModule</title>
<path fill="none" stroke="black" d="M1159,-122.02C1159,-139.37 1159,-163 1159,-163 1159,-163 926.13,-163 926.13,-163"/>
<polygon fill="black" stroke="black" points="926.13,-159.5 916.13,-163 926.13,-166.5 926.13,-159.5"/>
</g>
<!-- RepositoriesModule -->
<g id="node4" class="node">
<title>RepositoriesModule</title>
<polygon fill="#8dd3c7" stroke="black" points="1091.54,-122 1088.54,-126 1067.54,-126 1064.54,-122 962.46,-122 962.46,-86 1091.54,-86 1091.54,-122"/>
<text text-anchor="middle" x="1027" y="-99.8" font-family="Times,serif" font-size="14.00">RepositoriesModule</text>
</g>
<!-- RepositoriesModule&#45;&gt;AnalysisModule -->
<g id="edge4" class="edge">
<title>RepositoriesModule&#45;&gt;AnalysisModule</title>
<path fill="none" stroke="black" d="M1011.23,-122.24C1011.23,-137.57 1011.23,-157 1011.23,-157 1011.23,-157 926.3,-157 926.3,-157"/>
<polygon fill="black" stroke="black" points="926.3,-153.5 916.3,-157 926.3,-160.5 926.3,-153.5"/>
</g>
<!-- AnalysisService  -->
<g id="node6" class="node">
<title>AnalysisService </title>
<polygon fill="#fb8072" stroke="black" points="1060.47,-252 949.53,-252 949.53,-216 1060.47,-216 1060.47,-252"/>
<text text-anchor="middle" x="1005" y="-229.8" font-family="Times,serif" font-size="14.00">AnalysisService </text>
</g>
<!-- AnalysisModule&#45;&gt;AnalysisService  -->
<g id="edge5" class="edge">
<title>AnalysisModule&#45;&gt;AnalysisService </title>
<path fill="none" stroke="black" stroke-dasharray="5,2" d="M916.13,-181C937.03,-181 956,-181 956,-181 956,-181 956,-205.76 956,-205.76"/>
<polygon fill="black" stroke="black" points="952.5,-205.76 956,-215.76 959.5,-205.76 952.5,-205.76"/>
</g>
<!-- MCPAnalysisService  -->
<g id="node7" class="node">
<title>MCPAnalysisService </title>
<polygon fill="#fb8072" stroke="black" points="932.03,-252 791.97,-252 791.97,-216 932.03,-216 932.03,-252"/>
<text text-anchor="middle" x="862" y="-229.8" font-family="Times,serif" font-size="14.00">MCPAnalysisService </text>
</g>
<!-- AnalysisModule&#45;&gt;MCPAnalysisService  -->
<g id="edge6" class="edge">
<title>AnalysisModule&#45;&gt;MCPAnalysisService </title>
<path fill="none" stroke="black" stroke-dasharray="5,2" d="M862,-187.11C862,-187.11 862,-205.99 862,-205.99"/>
<polygon fill="black" stroke="black" points="858.5,-205.99 862,-215.99 865.5,-205.99 858.5,-205.99"/>
</g>
<!-- MCPSummaryService  -->
<g id="node8" class="node">
<title>MCPSummaryService </title>
<polygon fill="#fb8072" stroke="black" points="773.98,-252 628.02,-252 628.02,-216 773.98,-216 773.98,-252"/>
<text text-anchor="middle" x="701" y="-229.8" font-family="Times,serif" font-size="14.00">MCPSummaryService </text>
</g>
<!-- AnalysisModule&#45;&gt;MCPSummaryService  -->
<g id="edge7" class="edge">
<title>AnalysisModule&#45;&gt;MCPSummaryService </title>
<path fill="none" stroke="black" stroke-dasharray="5,2" d="M807.69,-181C768.16,-181 721.52,-181 721.52,-181 721.52,-181 721.52,-205.76 721.52,-205.76"/>
<polygon fill="black" stroke="black" points="718.02,-205.76 721.52,-215.76 725.02,-205.76 718.02,-205.76"/>
</g>
<!-- AnalysisLoaders -->
<g id="node9" class="node">
<title>AnalysisLoaders</title>
<ellipse fill="#fdb462" stroke="black" cx="862" cy="-104" rx="75.86" ry="18"/>
<text text-anchor="middle" x="862" y="-99.8" font-family="Times,serif" font-size="14.00">AnalysisLoaders</text>
</g>
<!-- AnalysisLoaders&#45;&gt;AnalysisModule -->
<g id="edge8" class="edge">
<title>AnalysisLoaders&#45;&gt;AnalysisModule</title>
<path fill="none" stroke="black" d="M862,-122.11C862,-122.11 862,-140.99 862,-140.99"/>
<polygon fill="black" stroke="black" points="858.5,-140.99 862,-150.99 865.5,-140.99 858.5,-140.99"/>
</g>
<!-- AnalysisResolver -->
<g id="node10" class="node">
<title>AnalysisResolver</title>
<ellipse fill="#fdb462" stroke="black" cx="689" cy="-104" rx="79.31" ry="18"/>
<text text-anchor="middle" x="689" y="-99.8" font-family="Times,serif" font-size="14.00">AnalysisResolver</text>
</g>
<!-- AnalysisResolver&#45;&gt;AnalysisModule -->
<g id="edge9" class="edge">
<title>AnalysisResolver&#45;&gt;AnalysisModule</title>
<path fill="none" stroke="black" d="M674.89,-121.94C674.89,-137.32 674.89,-157 674.89,-157 674.89,-157 797.88,-157 797.88,-157"/>
<polygon fill="black" stroke="black" points="797.88,-160.5 807.88,-157 797.88,-153.5 797.88,-160.5"/>
</g>
<!-- AnalysisService -->
<g id="node11" class="node">
<title>AnalysisService</title>
<ellipse fill="#fdb462" stroke="black" cx="518" cy="-104" rx="73.57" ry="18"/>
<text text-anchor="middle" x="518" y="-99.8" font-family="Times,serif" font-size="14.00">AnalysisService</text>
</g>
<!-- AnalysisService&#45;&gt;AnalysisModule -->
<g id="edge10" class="edge">
<title>AnalysisService&#45;&gt;AnalysisModule</title>
<path fill="none" stroke="black" d="M518,-122.02C518,-139.37 518,-163 518,-163 518,-163 797.87,-163 797.87,-163"/>
<polygon fill="black" stroke="black" points="797.87,-166.5 807.87,-163 797.87,-159.5 797.87,-166.5"/>
</g>
<!-- MCPAnalysisService -->
<g id="node12" class="node">
<title>MCPAnalysisService</title>
<ellipse fill="#fdb462" stroke="black" cx="332" cy="-104" rx="94.36" ry="18"/>
<text text-anchor="middle" x="332" y="-99.8" font-family="Times,serif" font-size="14.00">MCPAnalysisService</text>
</g>
<!-- MCPAnalysisService&#45;&gt;AnalysisModule -->
<g id="edge11" class="edge">
<title>MCPAnalysisService&#45;&gt;AnalysisModule</title>
<path fill="none" stroke="black" d="M332,-122.11C332,-141.34 332,-169 332,-169 332,-169 797.77,-169 797.77,-169"/>
<polygon fill="black" stroke="black" points="797.77,-172.5 807.77,-169 797.77,-165.5 797.77,-172.5"/>
</g>
<!-- MCPSummaryService -->
<g id="node13" class="node">
<title>MCPSummaryService</title>
<ellipse fill="#fdb462" stroke="black" cx="122" cy="-104" rx="97.87" ry="18"/>
<text text-anchor="middle" x="122" y="-99.8" font-family="Times,serif" font-size="14.00">MCPSummaryService</text>
</g>
<!-- MCPSummaryService&#45;&gt;AnalysisModule -->
<g id="edge12" class="edge">
<title>MCPSummaryService&#45;&gt;AnalysisModule</title>
<path fill="none" stroke="black" d="M122,-122.28C122,-143.32 122,-175 122,-175 122,-175 797.89,-175 797.89,-175"/>
<polygon fill="black" stroke="black" points="797.89,-178.5 807.89,-175 797.89,-171.5 797.89,-178.5"/>
</g>
</g>
</svg>
